<?xml version="1.0" encoding="UTF-8" standalone="no"?>
<!-- Generator: Adobe Illustrator 16.0.0, SVG Export Plug-In . SVG Version: 6.00 Build 0)  -->

<svg
   xmlns:dc="http://purl.org/dc/elements/1.1/"
   xmlns:cc="http://creativecommons.org/ns#"
   xmlns:rdf="http://www.w3.org/1999/02/22-rdf-syntax-ns#"
   xmlns:svg="http://www.w3.org/2000/svg"
   xmlns="http://www.w3.org/2000/svg"
   xmlns:sodipodi="http://sodipodi.sourceforge.net/DTD/sodipodi-0.dtd"
   xmlns:inkscape="http://www.inkscape.org/namespaces/inkscape"
   version="1.1"
   id="Layer_1"
   x="0px"
   y="0px"
   width="800px"
   height="200px"
   viewBox="0 0 800 200"
   enable-background="new 0 0 800 200"
   xml:space="preserve"
   sodipodi:docname="logo.svg"
   inkscape:version="0.92.5 (2060ec1f9f, 2020-04-08)"
   inkscape:export-filename="/home/danp/DanP-DevBrand/FoxWebLandscape.png"
   inkscape:export-xdpi="24"
   inkscape:export-ydpi="24"><metadata
   id="metadata386"><rdf:RDF><cc:Work
       rdf:about=""><dc:format>image/svg+xml</dc:format><dc:type
         rdf:resource="http://purl.org/dc/dcmitype/StillImage" /><dc:title></dc:title></cc:Work></rdf:RDF></metadata><defs
   id="defs384" /><sodipodi:namedview
   pagecolor="#ffffff"
   bordercolor="#666666"
   borderopacity="1"
   objecttolerance="10"
   gridtolerance="10"
   guidetolerance="10"
   inkscape:pageopacity="0"
   inkscape:pageshadow="2"
   inkscape:window-width="1366"
   inkscape:window-height="708"
   id="namedview382"
   showgrid="false"
   inkscape:zoom="0.52"
   inkscape:cx="299.32549"
   inkscape:cy="23.076925"
   inkscape:window-x="0"
   inkscape:window-y="0"
   inkscape:window-maximized="1"
   inkscape:current-layer="g367" />
<g
   id="g287">
	<g
   id="g285">
		<g
   id="g68">
			<linearGradient
   id="SVGID_1_"
   gradientUnits="userSpaceOnUse"
   x1="194.89211"
   y1="1.5986"
   x2="212.8484"
   y2="194.63049">
				<stop
   offset="0"
   style="stop-color:#F26735"
   id="stop2" />
				<stop
   offset="0.4148"
   style="stop-color:#DD552E"
   id="stop4" />
				<stop
   offset="1"
   style="stop-color:#C23726"
   id="stop6" />
			</linearGradient>
			<path
   d="m 187.168,197.02 c 39.037,-18.072 36.666,-58.953 14.033,-86.59 -14.83,-18.094 -31.269,-31.888 -40.715,-46.326 -0.011,-0.023 -0.023,-0.036 -0.047,-0.06 -7.35,-11.256 -10.447,-22.906 -5.193,-37.284 3.942,-9.637 16.343,-22.025 28.601,-24.134 3.037,28.351 32.115,52.843 49.982,75.571 33.472,42.549 24.277,104.719 -46.661,118.823 z"
   id="path9"
   inkscape:connector-curvature="0"
   style="fill:url(#SVGID_1_)" />
			<g
   id="g20">
				<linearGradient
   id="SVGID_2_"
   gradientUnits="userSpaceOnUse"
   x1="205.3428"
   y1="0.62650001"
   x2="223.3925"
   y2="194.6628">
					<stop
   offset="0"
   style="stop-color:#C23726"
   id="stop11" />
					<stop
   offset="0.5852"
   style="stop-color:#DD552E"
   id="stop13" />
					<stop
   offset="1"
   style="stop-color:#F26735"
   id="stop15" />
				</linearGradient>
				<path
   d="m 183.847,2.625 c 0,0 0.153,0.964 0.439,2.773 0.364,1.792 0.939,4.414 2.039,7.642 1.097,3.225 2.757,7.029 5.065,11.169 2.291,4.151 5.269,8.606 8.753,13.288 3.512,4.666 7.573,9.525 12.016,14.544 4.431,5.029 9.257,10.207 14.085,15.732 4.83,5.529 9.783,11.284 13.983,17.876 4.169,6.557 7.54,13.771 9.889,21.323 2.335,7.557 3.387,15.498 3.292,23.285 -0.152,7.795 -1.707,15.424 -4.351,22.359 -2.7,6.928 -6.629,13.059 -11.09,18.164 -4.465,5.121 -9.47,9.209 -14.395,12.447 -2.435,1.672 -4.94,2.988 -7.287,4.291 -1.214,0.574 -2.396,1.131 -3.546,1.674 -0.575,0.268 -1.142,0.533 -1.701,0.795 -0.573,0.227 -1.138,0.451 -1.693,0.672 -1.11,0.439 -2.185,0.865 -3.223,1.275 -1.038,0.408 -2.075,0.701 -3.051,1.039 -0.98,0.322 -1.921,0.631 -2.82,0.928 -0.899,0.293 -1.782,0.49 -2.605,0.723 -1.656,0.434 -3.124,0.861 -4.421,1.148 -1.302,0.268 -2.409,0.496 -3.307,0.68 -1.793,0.369 -2.75,0.566 -2.75,0.566 0,0 0.948,-0.234 2.727,-0.672 0.888,-0.219 1.984,-0.488 3.272,-0.805 1.281,-0.342 2.732,-0.814 4.37,-1.291 0.813,-0.254 1.686,-0.477 2.573,-0.795 0.886,-0.32 1.813,-0.656 2.779,-1.004 0.961,-0.363 1.982,-0.684 3.002,-1.119 1.018,-0.438 2.073,-0.891 3.162,-1.359 0.544,-0.234 1.098,-0.473 1.659,-0.713 0.546,-0.275 1.101,-0.555 1.663,-0.838 1.122,-0.568 2.276,-1.154 3.46,-1.756 2.283,-1.355 4.743,-2.678 7.11,-4.375 4.796,-3.275 9.639,-7.379 13.914,-12.461 4.275,-5.07 7.962,-11.107 10.579,-17.84 2.529,-6.76 3.999,-14.182 4.104,-21.768 0.049,-7.58 -1.023,-15.309 -3.338,-22.672 -2.248,-7.38 -5.504,-14.461 -9.549,-20.906 -4.032,-6.421 -8.948,-12.218 -13.716,-17.735 -4.805,-5.509 -9.517,-10.798 -13.876,-15.918 -4.369,-5.111 -8.368,-10.07 -11.821,-14.83 -3.448,-4.764 -6.317,-9.349 -8.503,-13.604 -2.208,-4.242 -3.77,-8.122 -4.781,-11.399 -1.026,-3.276 -1.474,-5.941 -1.778,-7.747 -0.218,-1.816 -0.333,-2.786 -0.333,-2.786 z"
   id="path18"
   inkscape:connector-curvature="0"
   style="fill:url(#SVGID_2_)" />
			</g>
			<linearGradient
   id="SVGID_3_"
   gradientUnits="userSpaceOnUse"
   x1="180.3037"
   y1="3.3584001"
   x2="188.4135"
   y2="90.539803">
				<stop
   offset="0"
   style="stop-color:#FFFFFF"
   id="stop22" />
				<stop
   offset="0.2101"
   style="stop-color:#EEEEEE"
   id="stop24" />
				<stop
   offset="0.6219"
   style="stop-color:#C3C3C3"
   id="stop26" />
				<stop
   offset="1"
   style="stop-color:#969696"
   id="stop28" />
			</linearGradient>
			<path
   d="M 184.251,65.259 C 174.613,58.672 169.479,49.44 169.479,49.44 c -1.096,6.123 -0.988,11.626 -0.559,15.76 -9.233,-12.103 -12.794,-22.645 -7.886,-36.201 2.728,-6.587 10.208,-14.521 17.975,-18.285 4.634,18.523 18.428,35.177 31.722,50.209 C 192.125,57.266 182,46.545 182,46.545 c -0.381,8.303 2.251,18.714 2.251,18.714 z"
   id="path31"
   inkscape:connector-curvature="0"
   style="fill:url(#SVGID_3_)" />
			<linearGradient
   id="SVGID_4_"
   gradientUnits="userSpaceOnUse"
   x1="197.0293"
   y1="13.2588"
   x2="199.46249"
   y2="173.84331">
				<stop
   offset="0"
   style="stop-color:#F26735"
   id="stop33" />
				<stop
   offset="0.3193"
   style="stop-color:#D5552E"
   id="stop35" />
				<stop
   offset="0.9464"
   style="stop-color:#9F2C21"
   id="stop37" />
				<stop
   offset="1"
   style="stop-color:#9A291F"
   id="stop39" />
			</linearGradient>
			<path
   d="m 236.438,151.551 c -5.479,18.857 -17.332,35.57 -49.269,45.469 39.037,-18.072 36.666,-58.953 14.033,-86.59 -14.83,-18.094 -31.269,-31.888 -40.715,-46.326 19.238,27.517 29.112,23.276 60.133,55.201 l 1.215,-7.957 c 14.294,20.93 7.004,45.98 7.004,45.98 z"
   id="path42"
   inkscape:connector-curvature="0"
   style="fill:url(#SVGID_4_)" />
			<linearGradient
   id="SVGID_5_"
   gradientUnits="userSpaceOnUse"
   x1="195.2368"
   y1="7.2480001"
   x2="181.4323"
   y2="62.255199">
				<stop
   offset="0"
   style="stop-color:#FFFFFF"
   id="stop44" />
				<stop
   offset="0.1567"
   style="stop-color:#EEEEEE"
   id="stop46" />
				<stop
   offset="0.4656"
   style="stop-color:#C3C3C3"
   id="stop48" />
				<stop
   offset="0.8935"
   style="stop-color:#7D7D7D"
   id="stop50" />
				<stop
   offset="1"
   style="stop-color:#6B6B6B"
   id="stop52" />
			</linearGradient>
			<path
   d="M 184.251,65.259 C 174.613,58.672 169.479,49.44 169.479,49.44 c -1.096,6.123 -0.988,11.626 -0.559,15.76 -9.233,-12.103 -12.794,-22.645 -7.886,-36.201 2.728,-6.587 10.208,-14.521 17.975,-18.285 -9.028,10.816 -9.332,21.917 -6.595,29.52 0,0 1.521,-6.083 7.3,-9.732 0,0 9.445,22.095 31.017,30.421 C 192.125,57.266 182,46.545 182,46.545 c -0.381,8.303 2.251,18.714 2.251,18.714 z"
   id="path55"
   inkscape:connector-curvature="0"
   style="fill:url(#SVGID_5_)" />
			<g
   id="g66">
				<linearGradient
   id="SVGID_6_"
   gradientUnits="userSpaceOnUse"
   x1="201.2236"
   y1="79.826202"
   x2="208.642"
   y2="159.57471">
					<stop
   offset="0"
   style="stop-color:#F26735"
   id="stop57" />
					<stop
   offset="0.4148"
   style="stop-color:#DD552E"
   id="stop59" />
					<stop
   offset="1"
   style="stop-color:#C23726"
   id="stop61" />
				</linearGradient>
				<path
   d="m 176.846,82.789 2.854,2.148 1.415,1.088 1.455,1.029 c 1.935,1.374 3.881,2.727 5.862,4.052 l 5.861,4.087 c 1.956,1.363 3.83,2.846 5.75,4.264 0.968,0.701 1.874,1.48 2.808,2.225 l 2.77,2.273 1.384,1.139 1.336,1.193 2.672,2.387 2.66,2.402 2.557,2.508 5.105,5.023 -1.704,0.547 1.241,-7.953 0.409,-2.621 1.354,2.221 1.589,2.605 0.793,1.303 c 0.248,0.443 0.447,0.914 0.673,1.369 l 1.314,2.75 c 0.381,0.941 0.718,1.9 1.079,2.848 l 0.53,1.426 0.414,1.465 c 0.267,0.977 0.565,1.945 0.786,2.934 l 0.582,2.979 c 0.218,0.986 0.277,2 0.423,2.998 l 0.187,1.502 0.087,1.51 c 0.04,1.008 0.151,2.012 0.124,3.02 -0.008,1.006 0.016,2.012 -0.018,3.018 l -0.182,3.008 -0.325,2.992 c -0.157,0.99 -0.271,1.986 -0.461,2.971 -0.18,0.984 -0.359,1.969 -0.602,2.941 -0.23,0.973 -0.492,1.938 -0.792,2.891 0.218,-0.975 0.395,-1.955 0.541,-2.941 0.151,-0.984 0.287,-1.969 0.396,-2.957 0.126,-0.986 0.177,-1.98 0.269,-2.969 l 0.132,-2.973 -0.001,-2.973 c -0.012,-0.99 -0.081,-1.979 -0.119,-2.965 -0.018,-0.988 -0.174,-1.969 -0.257,-2.951 l -0.153,-1.473 -0.232,-1.459 c -0.175,-0.971 -0.263,-1.955 -0.509,-2.91 l -0.661,-2.875 c -0.242,-0.951 -0.575,-1.877 -0.846,-2.82 l -0.427,-1.408 -0.541,-1.367 c -0.367,-0.908 -0.709,-1.826 -1.094,-2.727 l -1.319,-2.621 c -0.226,-0.434 -0.425,-0.881 -0.672,-1.303 l -0.772,-1.246 -1.542,-2.494 1.764,-0.402 -1.188,7.961 -0.292,1.951 -1.41,-1.409 -5.037,-5.016 -2.521,-2.506 -2.613,-2.406 -2.602,-2.42 -1.301,-1.209 -1.349,-1.156 -2.699,-2.309 c -0.901,-0.77 -1.774,-1.572 -2.711,-2.297 -1.855,-1.476 -3.678,-2.99 -5.563,-4.435 l -5.654,-4.345 c -1.888,-1.444 -3.76,-2.929 -5.614,-4.431 -0.941,-0.733 -1.847,-1.504 -2.732,-2.3 z"
   id="path64"
   inkscape:connector-curvature="0"
   style="fill:url(#SVGID_6_)" />
			</g>
		</g>
		<g
   id="g171">
			<path
   d="m 66.723,42.582 c -3.81,2.264 -8.053,5.299 -12.624,9.213 -2.451,-5.2 -4.495,-11.563 -5.986,-18.302 8.06,-10.426 15.123,-14.613 15.123,-14.613 0.091,5.183 0.939,14.416 3.487,23.702 z"
   id="path70"
   inkscape:connector-curvature="0"
   style="fill:#f04f24" />
			<linearGradient
   id="SVGID_7_"
   gradientUnits="userSpaceOnUse"
   x1="56.941898"
   y1="6.6107998"
   x2="57.5401"
   y2="46.090199">
				<stop
   offset="0"
   style="stop-color:#F26735"
   id="stop72" />
				<stop
   offset="0.3193"
   style="stop-color:#D5552E"
   id="stop74" />
				<stop
   offset="0.9464"
   style="stop-color:#9F2C21"
   id="stop76" />
				<stop
   offset="1"
   style="stop-color:#9A291F"
   id="stop78" />
			</linearGradient>
			<path
   d="m 66.723,42.582 c -3.81,2.264 -8.053,5.299 -12.624,9.213 -2.451,-5.2 -4.495,-11.563 -5.986,-18.302 8.06,-10.426 15.123,-14.613 15.123,-14.613 0.091,5.183 0.939,14.416 3.487,23.702 z"
   id="path81"
   inkscape:connector-curvature="0"
   style="fill:url(#SVGID_7_)" />
			<linearGradient
   id="SVGID_8_"
   gradientUnits="userSpaceOnUse"
   x1="57.179699"
   y1="26.396"
   x2="56.5714"
   y2="41.299">
				<stop
   offset="0"
   style="stop-color:#FFFFFF"
   id="stop83" />
				<stop
   offset="0.2101"
   style="stop-color:#EEEEEE"
   id="stop85" />
				<stop
   offset="0.6219"
   style="stop-color:#C3C3C3"
   id="stop87" />
				<stop
   offset="1"
   style="stop-color:#969696"
   id="stop89" />
			</linearGradient>
			<path
   d="m 62.852,43.705 c -2.069,-6.156 -2.993,-12.342 -3.253,-15.83 0,0 -4.597,3.09 -9.627,10.418 l 3.181,11.764 9.944,-3.926"
   id="path92"
   inkscape:connector-curvature="0"
   style="fill:url(#SVGID_8_)" />
			<linearGradient
   id="SVGID_9_"
   gradientUnits="userSpaceOnUse"
   x1="62.463402"
   y1="10.4434"
   x2="79.959297"
   y2="198.52589">
				<stop
   offset="0"
   style="stop-color:#F26735"
   id="stop94" />
				<stop
   offset="0.4148"
   style="stop-color:#DD552E"
   id="stop96" />
				<stop
   offset="1"
   style="stop-color:#C23726"
   id="stop98" />
			</linearGradient>
			<path
   d="m 96.15,197.02 c -0.989,0 -1.978,-0.012 -2.943,-0.035 C 3.175,194.945 -8.855,103.926 22.58,64.104 30.824,53.669 25.523,29.487 50.966,11.513 c -0.428,4.836 -0.476,9.946 -0.167,14.89 0.357,6.003 1.24,11.77 2.633,16.594 4.479,-2.74 8.564,-4.777 12.15,-6.194 6.063,-2.442 10.756,-3.193 13.746,-3.002 3.61,0.25 7.41,3.68 13.39,5.134 12.591,-2.132 22.657,-5.777 35.355,-12.174 11.996,32.83 -19.523,51.449 -45.957,83.67 -22.632,27.635 -25.003,68.516 14.034,86.589 z"
   id="path101"
   inkscape:connector-curvature="0"
   style="fill:url(#SVGID_9_)" />
			<g
   id="g112">
				<linearGradient
   id="SVGID_10_"
   gradientUnits="userSpaceOnUse"
   x1="36.026402"
   y1="12.0327"
   x2="53.666"
   y2="201.6604">
					<stop
   offset="0"
   style="stop-color:#C23726"
   id="stop103" />
					<stop
   offset="0.5852"
   style="stop-color:#DD552E"
   id="stop105" />
					<stop
   offset="1"
   style="stop-color:#F26735"
   id="stop107" />
				</linearGradient>
				<path
   d="m 93.207,196.984 c 0,0 -0.971,-0.035 -2.792,-0.098 -0.91,-0.033 -2.033,-0.072 -3.353,-0.119 -0.66,-0.023 -1.369,-0.051 -2.125,-0.078 -0.754,-0.08 -1.555,-0.166 -2.402,-0.256 -1.692,-0.189 -3.574,-0.363 -5.613,-0.621 -2.023,-0.359 -4.212,-0.75 -6.55,-1.168 -2.32,-0.506 -4.759,-1.188 -7.351,-1.83 -1.272,-0.404 -2.563,-0.865 -3.891,-1.314 -1.32,-0.471 -2.705,-0.871 -4.032,-1.5 -1.347,-0.582 -2.721,-1.178 -4.122,-1.783 -1.399,-0.611 -2.737,-1.416 -4.147,-2.135 -0.7,-0.371 -1.405,-0.746 -2.116,-1.123 -0.68,-0.432 -1.366,-0.865 -2.057,-1.303 -0.69,-0.441 -1.385,-0.885 -2.085,-1.332 -0.705,-0.441 -1.41,-0.891 -2.067,-1.422 -5.524,-3.867 -10.73,-8.848 -15.248,-14.664 -4.522,-5.814 -8.331,-12.492 -11.169,-19.686 -2.846,-7.191 -4.731,-14.885 -5.621,-22.688 -1.73,-15.619 0.671,-31.641 6.552,-45.152 0.371,-0.843 0.74,-1.683 1.107,-2.519 0.423,-0.81 0.845,-1.616 1.265,-2.418 0.431,-0.796 0.814,-1.613 1.278,-2.38 0.477,-0.76 0.952,-1.516 1.423,-2.267 0.896,-1.534 1.988,-2.917 3.015,-4.314 0.505,-0.686 1.008,-1.367 1.508,-2.043 0.448,-0.667 0.836,-1.333 1.204,-2.066 1.422,-2.906 2.255,-6.041 3.032,-9.067 0.767,-3.036 1.466,-6.001 2.266,-8.819 1.556,-5.647 3.623,-10.682 6.079,-14.775 2.43,-4.11 5.111,-7.323 7.513,-9.742 2.393,-2.44 4.552,-4.043 5.981,-5.169 1.484,-1.057 2.276,-1.62 2.276,-1.62 0,0 -0.769,0.593 -2.21,1.706 -1.389,1.173 -3.455,2.874 -5.768,5.353 -2.313,2.468 -4.871,5.725 -7.146,9.84 -2.296,4.106 -4.177,9.097 -5.64,14.703 -0.742,2.803 -1.385,5.759 -2.103,8.829 -0.731,3.061 -1.509,6.27 -2.97,9.401 -0.366,0.768 -0.811,1.564 -1.297,2.307 -0.493,0.693 -0.989,1.391 -1.488,2.093 -0.976,1.382 -2.016,2.743 -2.863,4.257 -0.447,0.741 -0.897,1.486 -1.349,2.234 -0.448,0.75 -0.818,1.552 -1.234,2.331 -0.405,0.786 -0.812,1.575 -1.221,2.367 -0.354,0.819 -0.71,1.642 -1.067,2.468 -2.841,6.616 -4.822,13.863 -5.872,21.359 -1.06,7.497 -1.166,15.249 -0.287,22.885 0.826,7.641 2.628,15.178 5.37,22.227 2.734,7.051 6.418,13.598 10.805,19.307 4.408,5.684 9.377,10.664 14.735,14.551 0.635,0.531 1.319,0.986 2.003,1.43 0.68,0.451 1.354,0.898 2.024,1.344 0.671,0.441 1.337,0.881 1.999,1.316 0.693,0.383 1.38,0.764 2.062,1.141 1.375,0.73 2.678,1.549 4.047,2.174 1.371,0.621 2.716,1.232 4.033,1.83 1.299,0.645 2.659,1.063 3.956,1.551 1.304,0.473 2.577,0.934 3.819,1.385 2.544,0.707 4.943,1.453 7.231,2.023 2.311,0.48 4.474,0.93 6.474,1.348 2.017,0.313 3.88,0.537 5.56,0.775 0.841,0.115 1.637,0.223 2.386,0.324 0.755,0.057 1.462,0.111 2.121,0.16 1.317,0.098 2.437,0.18 3.345,0.246 1.818,0.134 2.787,0.206 2.787,0.206 z"
   id="path110"
   inkscape:connector-curvature="0"
   style="fill:url(#SVGID_10_)" />
			</g>
			<linearGradient
   id="SVGID_11_"
   gradientUnits="userSpaceOnUse"
   x1="75.954597"
   y1="-36.494598"
   x2="79.0532"
   y2="168.002">
				<stop
   offset="0"
   style="stop-color:#F26735"
   id="stop114" />
				<stop
   offset="0.3193"
   style="stop-color:#D5552E"
   id="stop116" />
				<stop
   offset="0.9464"
   style="stop-color:#9F2C21"
   id="stop118" />
				<stop
   offset="1"
   style="stop-color:#9A291F"
   id="stop120" />
			</linearGradient>
			<path
   d="M 96.15,197.02 C 5.344,187.121 13.861,88.084 52.277,69.834 47.11,68.925 37.58,69.026 37.58,69.026 50.557,54.022 111.79,53.82 128.074,26.76 140.07,59.59 108.551,78.209 82.117,110.43 59.484,138.066 57.113,178.947 96.15,197.02 Z"
   id="path123"
   inkscape:connector-curvature="0"
   style="fill:url(#SVGID_11_)" />
			<linearGradient
   id="SVGID_12_"
   gradientUnits="userSpaceOnUse"
   x1="92.024902"
   y1="22.8237"
   x2="55.5285"
   y2="201.6566">
				<stop
   offset="0"
   style="stop-color:#FFFFFF"
   id="stop125" />
				<stop
   offset="0.2101"
   style="stop-color:#EEEEEE"
   id="stop127" />
				<stop
   offset="0.6219"
   style="stop-color:#C3C3C3"
   id="stop129" />
				<stop
   offset="1"
   style="stop-color:#969696"
   id="stop131" />
			</linearGradient>
			<path
   d="M 96.936,84.855 C 90.492,91.597 83.845,98.566 77.329,106.512 62.76,124.285 56.649,146.154 60.961,165 c 1.918,8.326 5.718,15.758 11.27,22.121 -19.179,-6.457 -34.057,-38.262 -29.304,-64.875 -3.24,5.004 -5.932,10.447 -7.779,16.117 -6.898,-69.137 76.308,-73.092 88.912,-102.8 2.858,16.82 -8.387,29.672 -27.124,49.292 z"
   id="path134"
   inkscape:connector-curvature="0"
   style="fill:url(#SVGID_12_)" />
			<linearGradient
   id="SVGID_13_"
   gradientUnits="userSpaceOnUse"
   x1="105.6084"
   y1="9.1752996"
   x2="65.765999"
   y2="167.93649">
				<stop
   offset="0"
   style="stop-color:#FFFFFF"
   id="stop136" />
				<stop
   offset="0.1567"
   style="stop-color:#EEEEEE"
   id="stop138" />
				<stop
   offset="0.4656"
   style="stop-color:#C3C3C3"
   id="stop140" />
				<stop
   offset="0.8935"
   style="stop-color:#7D7D7D"
   id="stop142" />
				<stop
   offset="1"
   style="stop-color:#6B6B6B"
   id="stop144" />
			</linearGradient>
			<path
   d="M 96.936,84.855 C 90.492,91.597 83.845,98.566 77.329,106.512 62.76,124.285 56.649,146.154 60.961,165 c 1.918,8.326 5.718,15.758 11.27,22.121 -29.114,-22.516 -22.259,-67.404 -5.507,-88.695 -4.86,1.215 -12.901,6.726 -12.901,6.726 12.901,-28.219 70.679,-41.048 70.238,-69.59 2.857,16.821 -8.388,29.673 -27.125,49.293 z"
   id="path147"
   inkscape:connector-curvature="0"
   style="fill:url(#SVGID_13_)" />
			<g
   id="g158">
				<linearGradient
   id="SVGID_14_"
   gradientUnits="userSpaceOnUse"
   x1="74.972198"
   y1="39.652302"
   x2="84.175499"
   y2="138.58949">
					<stop
   offset="0"
   style="stop-color:#F26735"
   id="stop149" />
					<stop
   offset="0.4148"
   style="stop-color:#DD552E"
   id="stop151" />
					<stop
   offset="1"
   style="stop-color:#C23726"
   id="stop153" />
				</linearGradient>
				<path
   d="m 42.926,122.246 -2.212,3.904 -1.986,4.008 -1.728,4.119 -1.439,4.221 -0.677,1.984 -0.167,-2.076 -0.367,-4.547 c -0.039,-0.758 -0.153,-1.516 -0.13,-2.277 l 0.012,-2.285 c -0.083,-3.053 0.271,-6.092 0.582,-9.131 l 0.816,-4.518 c 0.315,-1.498 0.788,-2.959 1.176,-4.443 l 0.308,-1.109 0.411,-1.074 0.828,-2.148 c 0.5,-1.455 1.236,-2.807 1.903,-4.189 0.352,-0.682 0.649,-1.395 1.045,-2.05 l 1.187,-1.973 c 0.4,-0.655 0.783,-1.322 1.198,-1.967 l 1.34,-1.871 1.341,-1.87 1.47,-1.768 1.475,-1.764 c 0.505,-0.576 1.052,-1.113 1.576,-1.671 1.053,-1.112 2.107,-2.224 3.254,-3.236 1.123,-1.038 2.229,-2.098 3.425,-3.048 2.338,-1.969 4.794,-3.783 7.29,-5.528 2.5,-1.743 5.064,-3.381 7.655,-4.968 2.598,-1.576 5.229,-3.088 7.875,-4.567 2.654,-1.464 5.312,-2.916 7.989,-4.326 l 8.028,-4.209 c 2.661,-1.422 5.311,-2.864 7.91,-4.385 1.286,-0.779 2.604,-1.515 3.853,-2.35 1.268,-0.81 2.536,-1.619 3.751,-2.5 2.486,-1.694 4.786,-3.636 6.921,-5.748 2.087,-2.163 3.87,-4.606 5.22,-7.322 -1.178,2.788 -2.836,5.377 -4.869,7.649 -2.063,2.231 -4.314,4.307 -6.75,6.129 -0.607,0.458 -1.2,0.938 -1.819,1.379 l -1.88,1.29 c -1.242,0.879 -2.546,1.655 -3.824,2.477 -2.578,1.603 -5.201,3.124 -7.833,4.624 l -15.837,8.827 c -2.618,1.494 -5.216,3.019 -7.774,4.602 -2.55,1.594 -5.068,3.234 -7.514,4.972 -2.443,1.739 -4.834,3.549 -7.112,5.486 -1.182,0.921 -2.268,1.947 -3.374,2.95 -1.131,0.979 -2.166,2.054 -3.202,3.128 -0.515,0.539 -1.054,1.058 -1.55,1.614 l -1.448,1.703 -1.446,1.705 -1.315,1.801 -1.318,1.804 c -0.408,0.622 -0.783,1.265 -1.177,1.896 l -1.169,1.903 c -0.391,0.633 -0.683,1.32 -1.03,1.979 -0.657,1.334 -1.387,2.637 -1.88,4.043 l -0.822,2.076 -0.414,1.037 -0.327,1.068 c -0.413,1.43 -0.914,2.84 -1.259,4.289 l -0.914,4.385 c -0.381,2.963 -0.812,5.934 -0.809,8.938 l -0.073,2.248 c -0.043,0.752 0.05,1.5 0.069,2.25 l 0.19,4.506 -0.844,-0.092 1.644,-4.203 1.923,-4.074 2.187,-3.938 z"
   id="path156"
   inkscape:connector-curvature="0"
   style="fill:url(#SVGID_14_)" />
			</g>
			<g
   id="g169">
				<linearGradient
   id="SVGID_15_"
   gradientUnits="userSpaceOnUse"
   x1="51.099098"
   y1="66.767601"
   x2="63.588799"
   y2="201.0327">
					<stop
   offset="0"
   style="stop-color:#F26735"
   id="stop160" />
					<stop
   offset="0.4148"
   style="stop-color:#DD552E"
   id="stop162" />
					<stop
   offset="1"
   style="stop-color:#C23726"
   id="stop164" />
				</linearGradient>
				<path
   d="m 96.15,197.02 -5.487,-0.65 -2.742,-0.338 -2.715,-0.539 c -1.807,-0.375 -3.633,-0.691 -5.432,-1.117 l -5.341,-1.498 -1.337,-0.375 c -0.438,-0.148 -0.87,-0.316 -1.304,-0.479 l -2.599,-0.982 -2.601,-0.982 c -0.851,-0.367 -1.677,-0.791 -2.518,-1.184 l -2.512,-1.199 -1.256,-0.602 -1.201,-0.705 c -1.591,-0.957 -3.224,-1.854 -4.783,-2.865 l -4.541,-3.25 c -1.436,-1.184 -2.834,-2.418 -4.248,-3.633 -0.73,-0.586 -1.315,-1.32 -1.978,-1.977 l -1.934,-2.021 c -0.67,-0.652 -1.235,-1.396 -1.818,-2.125 l -1.748,-2.188 c -2.248,-2.975 -4.263,-6.131 -5.992,-9.441 -1.733,-3.303 -3.189,-6.752 -4.377,-10.291 -1.181,-3.539 -2.098,-7.166 -2.712,-10.848 -0.2,-0.912 -0.289,-1.84 -0.397,-2.766 l -0.325,-2.779 c -0.206,-1.852 -0.212,-3.721 -0.328,-5.578 -0.051,-1.861 0.044,-3.727 0.061,-5.588 0.106,-1.857 0.298,-3.713 0.444,-5.568 0.276,-1.842 0.531,-3.686 0.845,-5.52 0.417,-1.816 0.743,-3.652 1.236,-5.447 0.977,-3.592 2.151,-7.14 3.708,-10.526 l 1.154,-2.543 1.331,-2.457 c 0.839,-1.665 1.9,-3.202 2.916,-4.763 0.482,-0.797 1.07,-1.523 1.645,-2.257 l 1.721,-2.201 1.912,-2.041 0.956,-1.019 c 0.333,-0.326 0.697,-0.62 1.043,-0.931 l 2.111,-1.832 c 0.743,-0.561 1.529,-1.069 2.29,-1.604 l 1.149,-0.792 c 0.396,-0.244 0.819,-0.443 1.227,-0.667 l 2.466,-1.304 0.081,0.598 -3.627,-0.482 c -1.208,-0.188 -2.44,-0.195 -3.66,-0.301 -1.223,-0.089 -2.447,-0.173 -3.673,-0.209 -1.227,-0.055 -2.453,-0.105 -3.681,-0.127 1.228,-0.041 2.456,-0.052 3.685,-0.059 1.229,-0.023 2.458,-0.011 3.687,0.039 1.229,0.061 2.461,0.021 3.688,0.164 l 3.691,0.352 0.958,0.091 -0.877,0.508 -2.367,1.369 c -0.391,0.233 -0.796,0.442 -1.173,0.695 l -1.095,0.818 c -0.724,0.552 -1.47,1.073 -2.174,1.646 L 43.6,76.501 c -0.331,0.312 -0.679,0.604 -0.996,0.93 l -0.91,1.018 -1.819,2.032 -1.63,2.19 c -0.544,0.729 -1.102,1.447 -1.555,2.24 -0.957,1.549 -1.958,3.069 -2.741,4.718 l -1.245,2.429 -1.07,2.513 c -1.439,3.344 -2.503,6.837 -3.453,10.347 -0.469,1.758 -0.773,3.559 -1.168,5.334 -0.293,1.795 -0.528,3.602 -0.785,5.404 -0.127,1.814 -0.302,3.629 -0.393,5.445 0,1.818 -0.082,3.641 -0.018,5.457 0.128,1.814 0.146,3.639 0.361,5.443 l 0.338,2.705 c 0.113,0.902 0.205,1.809 0.408,2.695 0.651,3.574 1.477,7.119 2.61,10.568 1.13,3.453 2.52,6.818 4.182,10.045 1.657,3.232 3.595,6.316 5.76,9.229 l 1.686,2.141 c 0.562,0.715 1.105,1.445 1.754,2.084 l 1.869,1.982 c 0.641,0.643 1.204,1.367 1.913,1.941 1.362,1.203 2.69,2.447 4.068,3.635 l 4.37,3.281 c 1.504,1.025 3.086,1.939 4.627,2.916 l 1.164,0.721 1.222,0.617 2.445,1.238 c 0.818,0.404 1.623,0.842 2.454,1.223 l 2.543,1.027 2.545,1.029 1.272,0.518 1.308,0.42 5.238,1.684 c 1.766,0.488 3.561,0.867 5.343,1.309 l 2.682,0.639 2.726,0.449 z"
   id="path167"
   inkscape:connector-curvature="0"
   style="fill:url(#SVGID_15_)" />
			</g>
		</g>
		<g
   id="g283">
			<g
   id="g226">
				<g
   id="g213">
					<linearGradient
   id="SVGID_16_"
   gradientUnits="userSpaceOnUse"
   x1="135.4424"
   y1="199.4131"
   x2="101.6551"
   y2="151.3158">
						<stop
   offset="0"
   style="stop-color:#F26735"
   id="stop173" />
						<stop
   offset="0.3193"
   style="stop-color:#D5552E"
   id="stop175" />
						<stop
   offset="0.9464"
   style="stop-color:#9F2C21"
   id="stop177" />
						<stop
   offset="1"
   style="stop-color:#9A291F"
   id="stop179" />
					</linearGradient>
					<path
   d="m 126.686,186.178 -3.299,3.299 c -0.259,-0.258 -0.504,-0.516 -0.764,-0.762 l -23.395,-23.396 -14.52,-14.504 14.52,-14.533 14.505,14.533 5.535,5.521 7.417,7.4 c 6.19,6.205 6.19,16.252 0.001,22.442 z"
   id="path182"
   inkscape:connector-curvature="0"
   style="fill:url(#SVGID_16_)" />
					<linearGradient
   id="SVGID_17_"
   gradientUnits="userSpaceOnUse"
   x1="145.6357"
   y1="185.0117"
   x2="106.9985"
   y2="159.94971">
						<stop
   offset="0"
   style="stop-color:#F26735"
   id="stop184" />
						<stop
   offset="0.3193"
   style="stop-color:#D5552E"
   id="stop186" />
						<stop
   offset="0.9464"
   style="stop-color:#9F2C21"
   id="stop188" />
						<stop
   offset="1"
   style="stop-color:#9A291F"
   id="stop190" />
					</linearGradient>
					<path
   d="m 122.623,188.715 -23.395,-23.396 -14.52,-14.504 14.52,-14.533 14.505,14.533 5.535,5.521 c -8.22,8.478 -12.173,16.469 3.355,32.379 z"
   id="path193"
   inkscape:connector-curvature="0"
   style="fill:url(#SVGID_17_)" />
					<linearGradient
   id="SVGID_18_"
   gradientUnits="userSpaceOnUse"
   x1="105.7314"
   y1="113.7646"
   x2="111.454"
   y2="175.2832">
						<stop
   offset="0"
   style="stop-color:#F26735"
   id="stop195" />
						<stop
   offset="0.4148"
   style="stop-color:#DD552E"
   id="stop197" />
						<stop
   offset="1"
   style="stop-color:#C23726"
   id="stop199" />
					</linearGradient>
					<path
   d="m 126.686,137.861 -17.301,17.301 c -5.439,5.439 -5.616,14.152 -0.504,19.781 0.15,0.18 0.327,0.355 0.504,0.533 l -24.676,-24.662 14.52,-14.533 24.158,-24.158 3.299,3.299 c 6.189,6.189 6.189,16.238 0,22.439 z"
   id="path202"
   inkscape:connector-curvature="0"
   style="fill:url(#SVGID_18_)" />
					<linearGradient
   id="SVGID_19_"
   gradientUnits="userSpaceOnUse"
   x1="124.3604"
   y1="97.472702"
   x2="111.6557"
   y2="163.4326">
						<stop
   offset="0"
   style="stop-color:#F26735"
   id="stop204" />
						<stop
   offset="0.4148"
   style="stop-color:#DD552E"
   id="stop206" />
						<stop
   offset="1"
   style="stop-color:#C23726"
   id="stop208" />
					</linearGradient>
					<path
   d="m 126.686,137.861 -17.301,17.301 c -5.439,5.439 -5.616,14.152 -0.504,19.781 -27.049,-27.783 18.582,-43.244 14.506,-62.82 l 3.299,3.299 c 6.189,6.189 6.189,16.238 0,22.439 z"
   id="path211"
   inkscape:connector-curvature="0"
   style="fill:url(#SVGID_19_)" />
				</g>
				<g
   id="g224">
					<linearGradient
   id="SVGID_20_"
   gradientUnits="userSpaceOnUse"
   x1="114.312"
   y1="138.2402"
   x2="117.706"
   y2="174.7263">
						<stop
   offset="0"
   style="stop-color:#F26735"
   id="stop215" />
						<stop
   offset="0.4148"
   style="stop-color:#DD552E"
   id="stop217" />
						<stop
   offset="1"
   style="stop-color:#C23726"
   id="stop219" />
					</linearGradient>
					<path
   d="m 126.686,137.861 c 0,0 -1.81,2.283 -4.711,5.52 -1.444,1.625 -3.159,3.492 -5.026,5.459 -0.941,0.979 -1.892,2.01 -2.896,3.02 -0.999,1.014 -2.014,2.045 -3.028,3.076 l -0.772,0.762 c -0.194,0.18 -0.476,0.508 -0.708,0.754 l -0.366,0.396 -0.294,0.389 c -0.188,0.264 -0.398,0.5 -0.571,0.781 -0.733,1.109 -1.303,2.299 -1.704,3.506 -0.401,1.211 -0.586,2.441 -0.682,3.617 -0.009,0.59 -0.04,1.166 0.017,1.723 0.011,0.561 0.096,1.094 0.179,1.609 0.176,1.029 0.458,1.953 0.749,2.764 0.332,0.791 0.634,1.488 0.957,2.025 0.287,0.561 0.582,0.959 0.766,1.246 0.188,0.285 0.289,0.436 0.289,0.436 0,0 -0.129,-0.127 -0.372,-0.365 -0.234,-0.248 -0.63,-0.574 -1.011,-1.092 -0.423,-0.49 -0.864,-1.141 -1.322,-1.926 -0.198,-0.406 -0.436,-0.83 -0.639,-1.301 -0.171,-0.48 -0.402,-0.977 -0.534,-1.525 -0.33,-1.082 -0.528,-2.305 -0.57,-3.613 -0.003,-1.305 0.083,-2.705 0.485,-4.092 0.397,-1.379 0.937,-2.793 1.776,-4.066 0.195,-0.326 0.452,-0.637 0.679,-0.957 0.233,-0.336 0.473,-0.617 0.713,-0.875 0.258,-0.281 0.438,-0.512 0.762,-0.836 l 0.762,-0.771 c 1.031,-1.016 2.063,-2.029 3.078,-3.029 1.01,-1.004 2.041,-1.955 3.018,-2.896 1.969,-1.867 3.834,-3.582 5.46,-5.025 3.233,-2.903 5.516,-4.714 5.516,-4.714 z"
   id="path222"
   inkscape:connector-curvature="0"
   style="fill:url(#SVGID_20_)" />
				</g>
			</g>
			<g
   id="g281">
				<g
   id="g268">
					
						<linearGradient
   id="SVGID_21_"
   gradientUnits="userSpaceOnUse"
   x1="689.27643"
   y1="176.5137"
   x2="655.48907"
   y2="128.4164"
   gradientTransform="rotate(180,418.4873,139.3506)">
						<stop
   offset="0"
   style="stop-color:#F26735"
   id="stop228" />
						<stop
   offset="0.3193"
   style="stop-color:#D5552E"
   id="stop230" />
						<stop
   offset="0.9464"
   style="stop-color:#9F2C21"
   id="stop232" />
						<stop
   offset="1"
   style="stop-color:#9A291F"
   id="stop234" />
					</linearGradient>
					<path
   d="m 156.454,115.422 3.3,-3.299 c 0.259,0.258 0.504,0.518 0.763,0.762 l 23.394,23.396 14.521,14.506 -14.521,14.531 -14.505,-14.531 -5.536,-5.523 -7.417,-7.402 c -6.188,-6.202 -6.188,-16.251 0.001,-22.44 z"
   id="path237"
   inkscape:connector-curvature="0"
   style="fill:url(#SVGID_21_)" />
					
						<linearGradient
   id="SVGID_22_"
   gradientUnits="userSpaceOnUse"
   x1="699.4707"
   y1="162.1152"
   x2="660.83197"
   y2="137.05231"
   gradientTransform="rotate(180,418.4873,139.3506)">
						<stop
   offset="0"
   style="stop-color:#F26735"
   id="stop239" />
						<stop
   offset="0.3193"
   style="stop-color:#D5552E"
   id="stop241" />
						<stop
   offset="0.9464"
   style="stop-color:#9F2C21"
   id="stop243" />
						<stop
   offset="1"
   style="stop-color:#9A291F"
   id="stop245" />
					</linearGradient>
					<path
   d="m 160.517,112.885 23.394,23.396 14.521,14.506 -14.521,14.531 -14.505,-14.531 -5.536,-5.523 c 8.222,-8.479 12.175,-16.467 -3.353,-32.379 z"
   id="path248"
   inkscape:connector-curvature="0"
   style="fill:url(#SVGID_22_)" />
					
						<linearGradient
   id="SVGID_23_"
   gradientUnits="userSpaceOnUse"
   x1="659.56543"
   y1="90.866699"
   x2="665.28802"
   y2="152.3853"
   gradientTransform="rotate(180,418.4873,139.3506)">
						<stop
   offset="0"
   style="stop-color:#F26735"
   id="stop250" />
						<stop
   offset="0.4148"
   style="stop-color:#DD552E"
   id="stop252" />
						<stop
   offset="1"
   style="stop-color:#C23726"
   id="stop254" />
					</linearGradient>
					<path
   d="m 156.454,163.736 17.302,-17.299 c 5.44,-5.439 5.617,-14.15 0.504,-19.783 -0.15,-0.176 -0.328,-0.354 -0.504,-0.531 l 24.676,24.664 -14.521,14.531 -24.157,24.158 -3.3,-3.299 c -6.189,-6.189 -6.189,-16.236 0,-22.441 z"
   id="path257"
   inkscape:connector-curvature="0"
   style="fill:url(#SVGID_23_)" />
					
						<linearGradient
   id="SVGID_24_"
   gradientUnits="userSpaceOnUse"
   x1="678.19427"
   y1="74.5728"
   x2="665.48932"
   y2="140.5347"
   gradientTransform="rotate(180,418.4873,139.3506)">
						<stop
   offset="0"
   style="stop-color:#F26735"
   id="stop259" />
						<stop
   offset="0.4148"
   style="stop-color:#DD552E"
   id="stop261" />
						<stop
   offset="1"
   style="stop-color:#C23726"
   id="stop263" />
					</linearGradient>
					<path
   d="m 156.454,163.736 17.302,-17.299 c 5.44,-5.439 5.617,-14.15 0.504,-19.783 27.049,27.785 -18.583,43.246 -14.506,62.822 l -3.3,-3.299 c -6.189,-6.189 -6.189,-16.236 0,-22.441 z"
   id="path266"
   inkscape:connector-curvature="0"
   style="fill:url(#SVGID_24_)" />
				</g>
				<g
   id="g279">
					<linearGradient
   id="SVGID_25_"
   gradientUnits="userSpaceOnUse"
   x1="168.82761"
   y1="163.35741"
   x2="165.43359"
   y2="126.8714">
						<stop
   offset="0"
   style="stop-color:#F26735"
   id="stop270" />
						<stop
   offset="0.4148"
   style="stop-color:#DD552E"
   id="stop272" />
						<stop
   offset="1"
   style="stop-color:#C23726"
   id="stop274" />
					</linearGradient>
					<path
   d="m 156.454,163.736 c 0,0 1.81,-2.281 4.711,-5.518 1.444,-1.627 3.159,-3.492 5.027,-5.461 0.941,-0.977 1.892,-2.008 2.896,-3.018 0.999,-1.016 2.014,-2.047 3.029,-3.078 l 0.772,-0.762 c 0.194,-0.18 0.476,-0.506 0.708,-0.752 l 0.366,-0.396 0.294,-0.389 c 0.188,-0.264 0.398,-0.5 0.571,-0.783 0.733,-1.107 1.303,-2.297 1.704,-3.506 0.402,-1.211 0.586,-2.441 0.682,-3.615 0.009,-0.59 0.04,-1.166 -0.017,-1.723 -0.011,-0.561 -0.096,-1.096 -0.179,-1.611 -0.176,-1.029 -0.458,-1.951 -0.748,-2.764 -0.333,-0.789 -0.634,-1.488 -0.958,-2.023 -0.287,-0.561 -0.582,-0.959 -0.765,-1.246 -0.188,-0.285 -0.289,-0.438 -0.289,-0.438 0,0 0.129,0.129 0.372,0.367 0.234,0.246 0.63,0.572 1.011,1.092 0.423,0.488 0.864,1.139 1.322,1.924 0.198,0.406 0.436,0.832 0.639,1.303 0.171,0.48 0.402,0.975 0.534,1.523 0.33,1.082 0.528,2.307 0.57,3.615 0.004,1.303 -0.082,2.705 -0.484,4.092 -0.397,1.379 -0.937,2.793 -1.776,4.064 -0.195,0.328 -0.452,0.639 -0.679,0.959 -0.234,0.336 -0.473,0.617 -0.713,0.875 -0.258,0.281 -0.438,0.51 -0.763,0.836 l -0.762,0.771 c -1.031,1.016 -2.063,2.029 -3.078,3.027 -1.01,1.006 -2.041,1.957 -3.018,2.896 -1.969,1.867 -3.835,3.582 -5.46,5.025 -3.237,2.906 -5.519,4.714 -5.519,4.714 z"
   id="path277"
   inkscape:connector-curvature="0"
   style="fill:url(#SVGID_25_)" />
				</g>
			</g>
		</g>
	</g>
</g>
<g
   id="g367">
	<g
   id="g295"
   transform="matrix(1.1418601,0,0,1.1418601,-58.926383,16.208737)">
		<path
   stroke-miterlimit="10"
   d="m 343.467,39.439 h -43.829 v 35.233 h 32.836 v 8.878 h -32.836 v 48.48 h -10.57 V 30.561 h 54.399 z"
   id="path289"
   inkscape:connector-curvature="0"
   style="fill:#3c3c3c;stroke:#3c3c3c;stroke-width:4;stroke-miterlimit:10" />
		<path
   stroke-miterlimit="10"
   d="m 374.97232,28.587 c 29.596,0 31.146,33.823 31.146,52.708 0,13.529 0.987,52.708 -31.146,52.708 -31.286,0 -31.146,-38.333 -31.146,-52.708 10e-4,-42.42 14.094,-52.708 31.146,-52.708 z m 20.577,52.708 c 0,-9.301 1.409,-43.829 -20.576,-43.829 -22.549,0 -20.576,37.91 -20.576,43.829 0,11.556 -0.563,43.83 20.576,43.83 10.569,0 20.576,-7.047 20.576,-43.83 z"
   id="path291"
   inkscape:connector-curvature="0"
   style="fill:#3c3c3c;stroke:#3c3c3c;stroke-width:4;stroke-miterlimit:10" />
		<path
   stroke-miterlimit="10"
   d="m 422.82664,30.561 17.193,39.319 17.193,-39.319 h 12.261 l -23.958,50.312 24.663,51.158 h -12.262 l -17.897,-40.588 -17.898,40.588 h -12.12 l 24.804,-51.299 -24.099,-50.171 z"
   id="path293"
   inkscape:connector-curvature="0"
   style="fill:#3c3c3c;stroke:#3c3c3c;stroke-width:4;stroke-miterlimit:10" />
	</g>
	
	<g
   id="g365"
   transform="matrix(1.2229469,0,0,1.2229469,-166.92152,9.910047)">
		<path
   d="m 576.892,130.562 h -6.537 c -4.954,0 -8.532,-2.66 -10.734,-7.982 L 531.546,31.886 h 5.918 c 4.954,0 8.555,2.661 10.804,7.982 l 20.23,65.234 13.417,-64.202 c 0.596,-2.66 1.915,-4.828 3.957,-6.503 2.04,-1.674 4.414,-2.512 7.122,-2.512 h 1.376 l 15.276,73.216 20.437,-65.785 c 2.064,-4.954 5.391,-7.432 9.979,-7.432 h 6.537 l -30.484,98.676 h -5.711 c -2.661,0 -5.013,-0.826 -7.054,-2.478 -2.041,-1.652 -3.36,-3.807 -3.956,-6.468 L 589.071,73.31 Z"
   id="path359"
   inkscape:connector-curvature="0"
   style="fill:#f04f24" />
		<path
   d="m 696.418,117.006 c 3.119,0 5.78,1.101 7.982,3.303 2.202,2.202 3.303,4.863 3.303,7.982 v 2.271 H 653.479 V 43.377 c 0,-3.119 1.101,-5.791 3.303,-8.017 2.202,-2.225 4.862,-3.337 7.982,-3.337 h 42.938 v 2.271 c 0,3.12 -1.101,5.78 -3.303,7.982 -2.202,2.202 -4.863,3.303 -7.982,3.303 h -29.383 v 24.428 h 29.383 v 13.556 h -29.383 v 33.443 z"
   id="path361"
   inkscape:connector-curvature="0"
   style="fill:#f04f24" />
		<path
   d="m 767.432,74.205 c 9.954,6.286 14.932,14.979 14.932,26.08 0,8.351 -2.959,15.483 -8.876,21.4 -5.918,5.918 -13.052,8.877 -21.401,8.877 H 714.585 V 43.377 c 0,-3.119 1.101,-5.791 3.303,-8.017 2.202,-2.225 4.862,-3.337 7.982,-3.337 h 21.744 c 7.11,0 13.178,2.523 18.201,7.569 5.023,5.047 7.535,11.125 7.535,18.235 0,6.194 -1.974,11.653 -5.918,16.378 z M 728.14,45.579 v 24.428 h 19.474 c 3.349,0 6.216,-1.192 8.602,-3.579 2.385,-2.385 3.578,-5.252 3.578,-8.601 0,-3.395 -1.193,-6.285 -3.578,-8.67 -2.386,-2.385 -5.253,-3.578 -8.602,-3.578 H 728.14 Z m 40.668,54.705 c 0,-4.633 -1.629,-8.578 -4.886,-11.835 -3.258,-3.257 -7.202,-4.886 -11.836,-4.886 H 728.14 v 33.443 h 23.946 c 4.634,0 8.578,-1.641 11.836,-4.92 3.257,-3.279 4.886,-7.214 4.886,-11.802 z"
   id="path363"
   inkscape:connector-curvature="0"
   style="fill:#f04f24" />
	</g>
</g>
<g
   id="g369">
</g>
<g
   id="g371">
</g>
<g
   id="g373">
</g>
<g
   id="g375">
</g>
<g
   id="g377">
</g>
<g
   id="g379">
</g>
</svg>